<svg width="59" height="30" viewBox="0 0 59 30" fill="none" xmlns="http://www.w3.org/2000/svg">
<path d="M57.8241 0H51.5741C51.459 0 51.3657 0.093274 51.3657 0.208333V2.29167C51.3657 2.40673 51.459 2.5 51.5741 2.5H57.8241C57.9391 2.5 58.0324 2.40673 58.0324 2.29167V0.208333C58.0324 0.093274 57.9391 0 57.8241 0Z" fill="#CCCCCC"/>
<path d="M0.532227 2.46682V0.033366H1.19287V1.93451H2.17671V2.46682H0.532227Z" fill="#CCCCCC"/>
<path fill-rule="evenodd" clip-rule="evenodd" d="M4.40778 1.9356C4.51314 1.74944 4.56581 1.52091 4.56581 1.25C4.56581 0.979088 4.51314 0.750951 4.40778 0.565589C4.30243 0.379436 4.16024 0.238831 3.98121 0.143774C3.80219 0.0479248 3.60257 0 3.38235 0C3.16055 0 2.96014 0.0479248 2.78112 0.143774C2.60289 0.238831 2.46109 0.379436 2.35574 0.565589C2.25117 0.750951 2.19889 0.979088 2.19889 1.25C2.19889 1.51933 2.25117 1.74707 2.35574 1.93322C2.46109 2.11858 2.60289 2.25958 2.78112 2.35623C2.96014 2.45208 3.16055 2.5 3.38235 2.5C3.60257 2.5 3.80219 2.45247 3.98121 2.35741C4.16024 2.26156 4.30243 2.12096 4.40778 1.9356ZM3.82793 0.881654C3.86675 0.981464 3.88615 1.10425 3.88615 1.25C3.88615 1.39575 3.86675 1.51893 3.82793 1.61953C3.78991 1.71934 3.73327 1.79539 3.65802 1.84767C3.58356 1.89916 3.49167 1.92491 3.38235 1.92491C3.27304 1.92491 3.18075 1.89916 3.1055 1.84767C3.03104 1.79539 2.9744 1.71934 2.93558 1.61953C2.89756 1.51893 2.87855 1.39575 2.87855 1.25C2.87855 1.10425 2.89756 0.981464 2.93558 0.881654C2.9744 0.781052 3.03104 0.705006 3.1055 0.653517C3.18075 0.601236 3.27304 0.575095 3.38235 0.575095C3.49167 0.575095 3.58356 0.601236 3.65802 0.653517C3.73327 0.705006 3.78991 0.781052 3.82793 0.881654Z" fill="#CCCCCC"/>
<path d="M6.32209 0.836502C6.31179 0.794518 6.29555 0.757684 6.27337 0.725998C6.25119 0.693521 6.22347 0.666191 6.1902 0.644011C6.15772 0.621039 6.11969 0.604008 6.07613 0.592918C6.03335 0.581036 5.98622 0.575095 5.93473 0.575095C5.82383 0.575095 5.72917 0.601632 5.65075 0.654706C5.57312 0.707779 5.51371 0.784221 5.47252 0.884031C5.43212 0.98384 5.41192 1.10425 5.41192 1.24525C5.41192 1.38783 5.43132 1.50982 5.47014 1.61122C5.50895 1.71261 5.56678 1.79024 5.64362 1.84411C5.72046 1.89797 5.81591 1.92491 5.92998 1.92491C6.03058 1.92491 6.11415 1.91025 6.18069 1.88094C6.24802 1.85163 6.29832 1.81004 6.33159 1.75618C6.36486 1.70231 6.3815 1.63894 6.3815 1.56606L5.93948 1.57795V1.10741H7.01838V1.44487C7.01838 1.66667 6.97125 1.85638 6.87698 2.01402C6.78351 2.17086 6.65439 2.29127 6.48963 2.37524C6.32565 2.45841 6.13752 2.5 5.92522 2.5C5.68837 2.5 5.48044 2.4497 5.30141 2.3491C5.12239 2.24849 4.98258 2.10512 4.88197 1.91896C4.78216 1.73281 4.73226 1.51141 4.73226 1.25475C4.73226 1.05355 4.76276 0.875317 4.82375 0.720057C4.88554 0.564797 4.97109 0.433698 5.08041 0.326758C5.18972 0.219027 5.31607 0.137833 5.45944 0.083175C5.60282 0.0277251 5.7565 0 5.92047 0C6.06464 0 6.19851 0.0205958 6.32209 0.0617872C6.44645 0.102186 6.55617 0.160013 6.65122 0.235266C6.74707 0.309727 6.82431 0.398051 6.88292 0.500238C6.94154 0.602424 6.97719 0.714512 6.98986 0.836502H6.32209Z" fill="#CCCCCC"/>
<path fill-rule="evenodd" clip-rule="evenodd" d="M9.39395 1.9356C9.4993 1.74944 9.55198 1.52091 9.55198 1.25C9.55198 0.979088 9.4993 0.750951 9.39395 0.565589C9.28859 0.379436 9.1464 0.238831 8.96738 0.143774C8.78835 0.0479248 8.58873 0 8.36852 0C8.14672 0 7.94631 0.0479248 7.76728 0.143774C7.58905 0.238831 7.44726 0.379436 7.3419 0.565589C7.23734 0.750951 7.18506 0.979088 7.18506 1.25C7.18506 1.51933 7.23734 1.74707 7.3419 1.93322C7.44726 2.11858 7.58905 2.25958 7.76728 2.35623C7.94631 2.45208 8.14672 2.5 8.36852 2.5C8.58873 2.5 8.78835 2.45247 8.96738 2.35741C9.1464 2.26156 9.28859 2.12096 9.39395 1.9356ZM8.8141 0.881654C8.85291 0.981464 8.87232 1.10425 8.87232 1.25C8.87232 1.39575 8.85291 1.51893 8.8141 1.61953C8.77607 1.71934 8.71944 1.79539 8.64418 1.84767C8.56972 1.89916 8.47783 1.92491 8.36852 1.92491C8.2592 1.92491 8.16692 1.89916 8.09166 1.84767C8.0172 1.79539 7.96057 1.71934 7.92175 1.61953C7.88373 1.51893 7.86472 1.39575 7.86472 1.25C7.86472 1.10425 7.88373 0.981464 7.92175 0.881654C7.96057 0.781052 8.0172 0.705006 8.09166 0.653517C8.16692 0.601236 8.2592 0.575095 8.36852 0.575095C8.47783 0.575095 8.56972 0.601236 8.64418 0.653517C8.71944 0.705006 8.77607 0.781052 8.8141 0.881654Z" fill="#CCCCCC"/>
<path d="M38.1377 0.75C37.9996 0.75 37.8877 0.861898 37.8877 0.999998V1.5C37.8877 1.63805 37.9996 1.75 38.1377 1.75H41.3017C41.4398 1.75 41.5517 1.63805 41.5517 1.5V0.999998C41.5517 0.861898 41.4398 0.75 41.3017 0.75H38.1377Z" fill="#CCCCCC"/>
<path d="M44.8018 0.75C44.6637 0.75 44.5518 0.861898 44.5518 0.999998V1.5C44.5518 1.63805 44.6637 1.75 44.8018 1.75H47.9658C48.1039 1.75 48.2158 1.63805 48.2158 1.5V0.999998C48.2158 0.861898 48.1039 0.75 47.9658 0.75H44.8018Z" fill="#CCCCCC"/>
</svg>
